<svg xmlns="http://www.w3.org/2000/svg" viewBox="0 0 800 600" fill="none">
  <defs>
    <linearGradient id="bg" x1="0" y1="0" x2="800" y2="600" gradientUnits="userSpaceOnUse">
      <stop offset="0%" stop-color="#0f172a"/>
      <stop offset="100%" stop-color="#134e4a"/>
    </linearGradient>
    <linearGradient id="accent" x1="0" y1="0" x2="1" y2="1">
      <stop offset="0%" stop-color="#2dd4bf"/>
      <stop offset="100%" stop-color="#14b8a6"/>
    </linearGradient>
  </defs>
  <rect width="800" height="600" fill="url(#bg)"/>
  <rect x="48" y="48" width="704" height="504" rx="16" fill="#ffffff08" stroke="#2dd4bf33" stroke-width="2"/>
  <rect x="120" y="100" width="200" height="260" rx="8" fill="#ffffff12" stroke="#2dd4bf55"/>
  <rect x="140" y="130" width="160" height="12" rx="4" fill="#94a3b866"/>
  <rect x="140" y="155" width="140" height="8" rx="3" fill="#94a3b844"/>
  <rect x="140" y="175" width="150" height="8" rx="3" fill="#94a3b844"/>
  <rect x="140" y="195" width="120" height="8" rx="3" fill="#94a3b844"/>
  <rect x="140" y="230" width="160" height="80" rx="6" fill="#2dd4bf22" stroke="#2dd4bf44"/>
  <text x="220" y="278" text-anchor="middle" fill="#2dd4bf" font-family="system-ui,sans-serif" font-size="14" font-weight="600">OCR</text>
  <path d="M340 230 L420 180 L500 230 L500 320 L340 320 Z" fill="#ffffff10" stroke="url(#accent)" stroke-width="2"/>
  <circle cx="420" cy="250" r="28" fill="url(#accent)" opacity="0.9"/>
  <text x="420" y="256" text-anchor="middle" fill="#0f172a" font-family="system-ui,sans-serif" font-size="18" font-weight="700">AI</text>
  <rect x="540" y="140" width="180" height="44" rx="8" fill="#2dd4bf22" stroke="#2dd4bf66"/>
  <text x="630" y="168" text-anchor="middle" fill="#2dd4bf" font-family="system-ui,sans-serif" font-size="13">Invoice</text>
  <rect x="540" y="200" width="180" height="44" rx="8" fill="#2dd4bf22" stroke="#2dd4bf66"/>
  <text x="630" y="228" text-anchor="middle" fill="#2dd4bf" font-family="system-ui,sans-serif" font-size="13">Contract</text>
  <rect x="540" y="260" width="180" height="44" rx="8" fill="#2dd4bf33" stroke="#2dd4bf"/>
  <text x="630" y="288" text-anchor="middle" fill="#fff" font-family="system-ui,sans-serif" font-size="13" font-weight="600">Medical Form</text>
  <text x="400" y="480" text-anchor="middle" fill="#e2e8f0" font-family="system-ui,sans-serif" font-size="28" font-weight="700">Document Classification</text>
  <text x="400" y="520" text-anchor="middle" fill="#94a3b8" font-family="system-ui,sans-serif" font-size="16">OCR + ML / LLM Pipeline</text>
</svg>
