<svg xmlns="http://www.w3.org/2000/svg" viewBox="0 0 800 600" fill="none">
  <defs>
    <linearGradient id="bg2" x1="0" y1="0" x2="800" y2="600" gradientUnits="userSpaceOnUse">
      <stop offset="0%" stop-color="#0f172a"/>
      <stop offset="100%" stop-color="#1e293b"/>
    </linearGradient>
    <linearGradient id="accent2" x1="0" y1="0" x2="1" y2="1">
      <stop offset="0%" stop-color="#2dd4bf"/>
      <stop offset="100%" stop-color="#0d9488"/>
    </linearGradient>
  </defs>
  <rect width="800" height="600" fill="url(#bg2)"/>
  <rect x="80" y="60" width="640" height="480" rx="20" fill="#ffffff08" stroke="#2dd4bf33" stroke-width="2"/>
  <rect x="80" y="60" width="640" height="56" rx="20" fill="#ffffff10"/>
  <rect x="80" y="96" width="640" height="20" fill="#ffffff10"/>
  <circle cx="112" cy="88" r="8" fill="#f87171"/>
  <circle cx="136" cy="88" r="8" fill="#fbbf24"/>
  <circle cx="160" cy="88" r="8" fill="#4ade80"/>
  <text x="400" y="94" text-anchor="middle" fill="#e2e8f0" font-family="system-ui,sans-serif" font-size="15" font-weight="600">Interview AI Assistant</text>
  <rect x="120" y="150" width="320" height="56" rx="16" fill="#ffffff12"/>
  <text x="140" y="184" fill="#cbd5e1" font-family="system-ui,sans-serif" font-size="15">What projects have you worked on?</text>
  <rect x="360" y="230" width="400" height="120" rx="16" fill="#2dd4bf18" stroke="#2dd4bf55"/>
  <text x="380" y="262" fill="#2dd4bf" font-family="system-ui,sans-serif" font-size="14" font-weight="600">AI Assistant</text>
  <text x="380" y="290" fill="#e2e8f0" font-family="system-ui,sans-serif" font-size="14">Here are my projects: oladoc, SeeBiz,</text>
  <text x="380" y="312" fill="#e2e8f0" font-family="system-ui,sans-serif" font-size="14">Lango& Ask about any for details!</text>
  <rect x="120" y="380" width="360" height="56" rx="16" fill="#ffffff12"/>
  <text x="140" y="414" fill="#cbd5e1" font-family="system-ui,sans-serif" font-size="15">Tell me about the oladoc project</text>
  <rect x="120" y="470" width="560" height="48" rx="24" fill="#ffffff08" stroke="#2dd4bf44"/>
  <text x="150" y="500" fill="#64748b" font-family="system-ui,sans-serif" font-size="15">Ask about projects, skills, APIs&</text>
  <circle cx="640" cy="494" r="20" fill="url(#accent2)"/>
  <path d="M634 494 L652 494 M643 485 L652 494 L643 503" stroke="#0f172a" stroke-width="2.5" stroke-linecap="round" stroke-linejoin="round" fill="none"/>
  <text x="400" y="565" text-anchor="middle" fill="#94a3b8" font-family="system-ui,sans-serif" font-size="14">Portfolio interview-style Q&amp;A</text>
</svg>
