<svg xmlns="http://www.w3.org/2000/svg" viewBox="0 0 800 600" fill="none">
  <rect width="800" height="600" fill="#0f172a"/>
  <rect x="60" y="60" width="320" height="480" rx="16" fill="#ffffff08" stroke="#2dd4bf33" stroke-width="2"/>
  <rect x="420" y="60" width="320" height="480" rx="16" fill="#ffffff08" stroke="#2dd4bf33" stroke-width="2"/>
  <text x="220" y="110" text-anchor="middle" fill="#64748b" font-family="system-ui,sans-serif" font-size="13">Venue A</text>
  <text x="580" y="110" text-anchor="middle" fill="#64748b" font-family="system-ui,sans-serif" font-size="13">Venue B</text>
  <rect x="100" y="200" width="240" height="120" rx="12" fill="#2dd4bf22" stroke="#2dd4bf55"/>
  <rect x="460" y="200" width="240" height="120" rx="12" fill="#2dd4bf22" stroke="#2dd4bf55"/>
  <text x="220" y="250" text-anchor="middle" fill="#2dd4bf" font-family="system-ui,sans-serif" font-size="13" font-weight="600">SAME QUESTION</text>
  <text x="580" y="250" text-anchor="middle" fill="#2dd4bf" font-family="system-ui,sans-serif" font-size="13" font-weight="600">SAME QUESTION</text>
  <text x="220" y="285" text-anchor="middle" fill="#e2e8f0" font-family="system-ui,sans-serif" font-size="20" font-weight="700">Q3 · 0:08</text>
  <text x="580" y="285" text-anchor="middle" fill="#e2e8f0" font-family="system-ui,sans-serif" font-size="20" font-weight="700">Q3 · 0:08</text>
  <circle cx="400" cy="300" r="50" fill="#2dd4bf33" stroke="#2dd4bf" stroke-width="2"/>
  <text x="400" y="295" text-anchor="middle" fill="#2dd4bf" font-family="system-ui,sans-serif" font-size="11" font-weight="600">SOCKET</text>
  <text x="400" y="312" text-anchor="middle" fill="#2dd4bf" font-family="system-ui,sans-serif" font-size="11" font-weight="600">SYNC</text>
  <path d="M270 260 L350 280" stroke="#2dd4bf66" stroke-width="2"/>
  <path d="M530 260 L450 280" stroke="#2dd4bf66" stroke-width="2"/>
  <rect x="130" y="380" width="180" height="48" rx="24" fill="#4ade8033" stroke="#4ade80"/>
  <text x="220" y="410" text-anchor="middle" fill="#4ade80" font-family="system-ui,sans-serif" font-size="14" font-weight="600"><Ć First!</text>
  <rect x="490" y="380" width="180" height="48" rx="24" fill="#ffffff10"/>
  <text x="580" y="410" text-anchor="middle" fill="#94a3b8" font-family="system-ui,sans-serif" font-size="14">Waiting&</text>
  <text x="400" y="530" text-anchor="middle" fill="#e2e8f0" font-family="system-ui,sans-serif" font-size="28" font-weight="700">WITS</text>
  <text x="400" y="565" text-anchor="middle" fill="#64748b" font-family="system-ui,sans-serif" font-size="14">Real-time quiz · Multi-venue · Buzzer platform</text>
</svg>
